ffmpeg started on 2026-01-18 at 20:19:25
Report written to "C:\Dev\OSPanel\domains\Java-AT\modules\ffmpeg\FFMetrics\reports\psnr_report-6.txt"
Log level: 32
Command line:
ffmpeg -hide_banner -nostdin -r 24000/1001 -i "F:\\Convert\\files\\[DC] Make Heroine ga Oosugiru - 07_Telegram_HEVC(159).mkv" -r 24000/1001 -i "F:\\Convert\\files\\[DC] Make Heroine ga Oosugiru - 07_Telegram.mp4" -lavfi "[0:v]settb=AVTB,setpts=PTS-STARTPTS,format=pix_fmts=yuv420p10le,fps=24000/1001,scale=1920:1080:flags=lanczos:param0=3:out_range=limited:out_color_matrix=bt709:out_chroma_loc=left,setsar=1/1,setdar=(1920/1080)*(1/1),colorspace=format=yuv420p10:range=tv:primaries=bt709:trc=bt709:space=bt709:fast=0[main];[1:v]settb=AVTB,setpts=PTS-STARTPTS,format=pix_fmts=yuv420p,fps=24000/1001,scale=1920:1080:flags=lanczos:param0=3:out_range=limited:out_color_matrix=bt709:out_chroma_loc=left,setsar=1.000,setdar=1.778,colorspace=format=yuv420p:range=tv:primaries=bt709:trc=bt709:space=bt709:fast=0[ref];[main][ref]psnr=eof_action=endall:stats_file='C\\:/Dev/OSPanel/domains/Java-AT/modules/ffmpeg/FFMetrics/logs/psnr_logfile-6.txt'" -f null -
Input #0, matroska,webm, from 'F:\Convert\files\[DC] Make Heroine ga Oosugiru - 07_Telegram_HEVC(159).mkv':
  Metadata:
    COMPATIBLE_BRANDS: isomiso2avc1mp41
    MAJOR_BRAND     : isom
    MINOR_VERSION   : 512
    ENCODER         : Lavf61.7.100
  Duration: 00:24:06.79, start: -0.021000, bitrate: 997 kb/s
  Stream #0:0: Video: hevc (Main 10), yuv420p10le(tv, bt709, progressive), 1920x1080 [SAR 1:1 DAR 16:9], 23.98 fps, 23.98 tbr, 1k tbn (default)
      Metadata:
        HANDLER_NAME    : VideoHandler
        VENDOR_ID       : [0][0][0][0]
        ENCODER         : Lavc61.19.100 libx265
        BPS             : 800478
        DURATION        : 00:24:06.569708333
        NUMBER_OF_FRAMES: 34683
        NUMBER_OF_BYTES : 144743368
        _STATISTICS_WRITING_APP: mkvpropedit v94.0 ('Initiate') 64-bit
        _STATISTICS_WRITING_DATE_UTC: 2026-01-18 09:30:41
        _STATISTICS_TAGS: BPS DURATION NUMBER_OF_FRAMES NUMBER_OF_BYTES
  Stream #0:1: Audio: aac (LC), 48000 Hz, stereo, fltp (default)
      Metadata:
        HANDLER_NAME    : SoundHandler
        VENDOR_ID       : [0][0][0][0]
        ENCODER         : Lavc61.19.100 aac
        BPS             : 193194
        DURATION        : 00:24:06.784000000
        NUMBER_OF_FRAMES: 67819
        NUMBER_OF_BYTES : 34938755
        _STATISTICS_WRITING_APP: mkvpropedit v94.0 ('Initiate') 64-bit
        _STATISTICS_WRITING_DATE_UTC: 2026-01-18 09:30:41
        _STATISTICS_TAGS: BPS DURATION NUMBER_OF_FRAMES NUMBER_OF_BYTES
Input #1, mov,mp4,m4a,3gp,3g2,mj2, from 'F:\Convert\files\[DC] Make Heroine ga Oosugiru - 07_Telegram.mp4':
  Metadata:
    major_brand     : isom
    minor_version   : 512
    compatible_brands: isomiso2avc1mp41
    encoder         : Lavf60.16.100
  Duration: 00:24:06.74, start: 0.000000, bitrate: 3764 kb/s
  Stream #1:0[0x1](und): Video: h264 (High) (avc1 / 0x31637661), yuv420p(tv, bt709, progressive), 1920x1080 [SAR 1:1 DAR 16:9], 3616 kb/s, 23.98 fps, 23.98 tbr, 24k tbn (default)
      Metadata:
        handler_name    : VideoHandler
        vendor_id       : [0][0][0][0]
        encoder         : Lavc60.31.102 h264_qsv
  Stream #1:1[0x2](und): Audio: aac (HE-AACv2) (mp4a / 0x6134706D), 48000 Hz, stereo, fltp, 144 kb/s (default)
      Metadata:
        handler_name    : SoundHandler
        vendor_id       : [0][0][0][0]
Stream mapping:
  Stream #0:0 (hevc) -> settb:default
  Stream #1:0 (h264) -> settb:default
  psnr:default -> Stream #0:0 (wrapped_avframe)
  Stream #0:1 -> #0:1 (aac (native) -> pcm_s16le (native))
Output #0, null, to 'pipe:':
  Metadata:
    COMPATIBLE_BRANDS: isomiso2avc1mp41
    MAJOR_BRAND     : isom
    MINOR_VERSION   : 512
    encoder         : Lavf61.7.100
  Stream #0:0: Video: wrapped_avframe, yuv420p10le(tv, bt709, progressive), 1920x1080 [SAR 1:1 DAR 16:9], q=2-31, 200 kb/s, 23.98 fps, 23.98 tbn
      Metadata:
        encoder         : Lavc61.19.100 wrapped_avframe
  Stream #0:1: Audio: pcm_s16le, 48000 Hz, stereo, s16, 1536 kb/s (default)
      Metadata:
        HANDLER_NAME    : SoundHandler
        VENDOR_ID       : [0][0][0][0]
        _STATISTICS_TAGS: BPS DURATION NUMBER_OF_FRAMES NUMBER_OF_BYTES
        BPS             : 193194
        DURATION        : 00:24:06.784000000
        NUMBER_OF_FRAMES: 67819
        NUMBER_OF_BYTES : 34938755
        _STATISTICS_WRITING_APP: mkvpropedit v94.0 ('Initiate') 64-bit
        _STATISTICS_WRITING_DATE_UTC: 2026-01-18 09:30:41
        encoder         : Lavc61.19.100 pcm_s16le
frame=  128 fps=0.0 q=-0.0 size=N/A time=00:00:05.33 bitrate=N/A speed=10.6x    frame=  348 fps=337 q=-0.0 size=N/A time=00:00:14.51 bitrate=N/A speed=14.1x    frame=  557 fps=361 q=-0.0 size=N/A time=00:00:23.23 bitrate=N/A speed=  15x    frame=  773 fps=376 q=-0.0 size=N/A time=00:00:32.24 bitrate=N/A speed=15.7x    frame=  940 fps=366 q=-0.0 size=N/A time=00:00:39.20 bitrate=N/A speed=15.3x    frame= 1102 fps=358 q=-0.0 size=N/A time=00:00:45.96 bitrate=N/A speed=14.9x    frame= 1275 fps=353 q=-0.0 size=N/A time=00:00:53.17 bitrate=N/A speed=14.7x    frame= 1445 fps=351 q=-0.0 size=N/A time=00:01:00.26 bitrate=N/A speed=14.6x    frame= 1598 fps=345 q=-0.0 size=N/A time=00:01:06.64 bitrate=N/A speed=14.4x    frame= 1760 fps=342 q=-0.0 size=N/A time=00:01:13.40 bitrate=N/A speed=14.3x    frame= 1932 fps=341 q=-0.0 size=N/A time=00:01:20.58 bitrate=N/A speed=14.2x    frame= 2076 fps=336 q=-0.0 size=N/A time=00:01:26.58 bitrate=N/A speed=  14x    frame= 2220 fps=332 q=-0.0 size=N/A time=00:01:32.59 bitrate=N/A speed=13.8x    frame= 2380 fps=330 q=-0.0 size=N/A time=00:01:39.26 bitrate=N/A speed=13.8x    frame= 2525 fps=326 q=-0.0 size=N/A time=00:01:45.31 bitrate=N/A speed=13.6x    frame= 2684 fps=325 q=-0.0 size=N/A time=00:01:51.94 bitrate=N/A speed=13.6x    frame= 2876 fps=328 q=-0.0 size=N/A time=00:01:59.95 bitrate=N/A speed=13.7x    frame= 3061 fps=330 q=-0.0 size=N/A time=00:02:07.66 bitrate=N/A speed=13.8x    frame= 3268 fps=334 q=-0.0 size=N/A time=00:02:16.30 bitrate=N/A speed=13.9x    frame= 3487 fps=338 q=-0.0 size=N/A time=00:02:25.43 bitrate=N/A speed=14.1x    frame= 3698 fps=342 q=-0.0 size=N/A time=00:02:34.23 bitrate=N/A speed=14.2x    frame= 3904 fps=344 q=-0.0 size=N/A time=00:02:42.82 bitrate=N/A speed=14.4x    frame= 4113 fps=347 q=-0.0 size=N/A time=00:02:51.54 bitrate=N/A speed=14.5x    frame= 4325 fps=350 q=-0.0 size=N/A time=00:03:00.38 bitrate=N/A speed=14.6x    frame= 4543 fps=352 q=-0.0 size=N/A time=00:03:09.48 bitrate=N/A speed=14.7x    frame= 4749 fps=354 q=-0.0 size=N/A time=00:03:18.07 bitrate=N/A speed=14.8x    frame= 4958 fps=356 q=-0.0 size=N/A time=00:03:26.78 bitrate=N/A speed=14.9x    frame= 5164 fps=358 q=-0.0 size=N/A time=00:03:35.38 bitrate=N/A speed=14.9x    frame= 5372 fps=359 q=-0.0 size=N/A time=00:03:44.05 bitrate=N/A speed=  15x    frame= 5585 fps=361 q=-0.0 size=N/A time=00:03:52.94 bitrate=N/A speed=15.1x    frame= 5791 fps=362 q=-0.0 size=N/A time=00:04:01.53 bitrate=N/A speed=15.1x    frame= 5999 fps=364 q=-0.0 size=N/A time=00:04:10.20 bitrate=N/A speed=15.2x    frame= 6209 fps=365 q=-0.0 size=N/A time=00:04:18.96 bitrate=N/A speed=15.2x    frame= 6418 fps=366 q=-0.0 size=N/A time=00:04:27.68 bitrate=N/A speed=15.3x    frame= 6625 fps=367 q=-0.0 size=N/A time=00:04:36.31 bitrate=N/A speed=15.3x    frame= 6832 fps=368 q=-0.0 size=N/A time=00:04:44.95 bitrate=N/A speed=15.4x    frame= 7045 fps=369 q=-0.0 size=N/A time=00:04:53.83 bitrate=N/A speed=15.4x    frame= 7238 fps=369 q=-0.0 size=N/A time=00:05:01.88 bitrate=N/A speed=15.4x    frame= 7447 fps=370 q=-0.0 size=N/A time=00:05:10.60 bitrate=N/A speed=15.4x    frame= 7633 fps=370 q=-0.0 size=N/A time=00:05:18.35 bitrate=N/A speed=15.4x    frame= 7833 fps=371 q=-0.0 size=N/A time=00:05:26.70 bitrate=N/A speed=15.5x    frame= 8042 fps=371 q=-0.0 size=N/A time=00:05:35.41 bitrate=N/A speed=15.5x    frame= 8243 fps=372 q=-0.0 size=N/A time=00:05:43.80 bitrate=N/A speed=15.5x    frame= 8445 fps=372 q=-0.0 size=N/A time=00:05:52.22 bitrate=N/A speed=15.5x    frame= 8650 fps=373 q=-0.0 size=N/A time=00:06:00.77 bitrate=N/A speed=15.6x    frame= 8853 fps=373 q=-0.0 size=N/A time=00:06:09.24 bitrate=N/A speed=15.6x    frame= 9061 fps=374 q=-0.0 size=N/A time=00:06:17.91 bitrate=N/A speed=15.6x    frame= 9264 fps=374 q=-0.0 size=N/A time=00:06:26.38 bitrate=N/A speed=15.6x    frame= 9467 fps=375 q=-0.0 size=N/A time=00:06:34.85 bitrate=N/A speed=15.6x    frame= 9674 fps=375 q=-0.0 size=N/A time=00:06:43.48 bitrate=N/A speed=15.7x    frame= 9875 fps=376 q=-0.0 size=N/A time=00:06:51.86 bitrate=N/A speed=15.7x    frame=10082 fps=376 q=-0.0 size=N/A time=00:07:00.50 bitrate=N/A speed=15.7x    frame=10289 fps=377 q=-0.0 size=N/A time=00:07:09.13 bitrate=N/A speed=15.7x    frame=10487 fps=377 q=-0.0 size=N/A time=00:07:17.39 bitrate=N/A speed=15.7x    frame=10694 fps=377 q=-0.0 size=N/A time=00:07:26.02 bitrate=N/A speed=15.7x    frame=10894 fps=377 q=-0.0 size=N/A time=00:07:34.37 bitrate=N/A speed=15.7x    frame=11110 fps=378 q=-0.0 size=N/A time=00:07:43.37 bitrate=N/A speed=15.8x    frame=11298 fps=378 q=-0.0 size=N/A time=00:07:51.22 bitrate=N/A speed=15.8x    frame=11504 fps=378 q=-0.0 size=N/A time=00:07:59.81 bitrate=N/A speed=15.8x    frame=11703 fps=378 q=-0.0 size=N/A time=00:08:08.11 bitrate=N/A speed=15.8x    frame=11921 fps=379 q=-0.0 size=N/A time=00:08:17.20 bitrate=N/A speed=15.8x    frame=12122 fps=379 q=-0.0 size=N/A time=00:08:25.58 bitrate=N/A speed=15.8x    frame=12329 fps=380 q=-0.0 size=N/A time=00:08:34.22 bitrate=N/A speed=15.8x    frame=12537 fps=380 q=-0.0 size=N/A time=00:08:42.89 bitrate=N/A speed=15.9x    frame=12749 fps=380 q=-0.0 size=N/A time=00:08:51.73 bitrate=N/A speed=15.9x    frame=12957 fps=381 q=-0.0 size=N/A time=00:09:00.41 bitrate=N/A speed=15.9x    frame=13157 fps=381 q=-0.0 size=N/A time=00:09:08.75 bitrate=N/A speed=15.9x    frame=13360 fps=381 q=-0.0 size=N/A time=00:09:17.22 bitrate=N/A speed=15.9x    frame=13558 fps=381 q=-0.0 size=N/A time=00:09:25.48 bitrate=N/A speed=15.9x    frame=13772 fps=382 q=-0.0 size=N/A time=00:09:34.40 bitrate=N/A speed=15.9x    frame=13978 fps=382 q=-0.0 size=N/A time=00:09:42.99 bitrate=N/A speed=15.9x    frame=14156 fps=381 q=-0.0 size=N/A time=00:09:50.42 bitrate=N/A speed=15.9x    frame=14367 fps=382 q=-0.0 size=N/A time=00:09:59.22 bitrate=N/A speed=15.9x    frame=14569 fps=382 q=-0.0 size=N/A time=00:10:07.64 bitrate=N/A speed=15.9x    frame=14771 fps=382 q=-0.0 size=N/A time=00:10:16.07 bitrate=N/A speed=15.9x    frame=14970 fps=382 q=-0.0 size=N/A time=00:10:24.37 bitrate=N/A speed=15.9x    frame=15148 fps=381 q=-0.0 size=N/A time=00:10:31.79 bitrate=N/A speed=15.9x    frame=15347 fps=381 q=-0.0 size=N/A time=00:10:40.09 bitrate=N/A speed=15.9x    frame=15543 fps=381 q=-0.0 size=N/A time=00:10:48.27 bitrate=N/A speed=15.9x    frame=15751 fps=382 q=-0.0 size=N/A time=00:10:56.94 bitrate=N/A speed=15.9x    frame=15962 fps=382 q=-0.0 size=N/A time=00:11:05.74 bitrate=N/A speed=15.9x    frame=16167 fps=382 q=-0.0 size=N/A time=00:11:14.29 bitrate=N/A speed=15.9x    frame=16371 fps=382 q=-0.0 size=N/A time=00:11:22.80 bitrate=N/A speed=  16x    frame=16564 fps=382 q=-0.0 size=N/A time=00:11:30.85 bitrate=N/A speed=15.9x    frame=16781 fps=383 q=-0.0 size=N/A time=00:11:39.90 bitrate=N/A speed=  16x    frame=16985 fps=383 q=-0.0 size=N/A time=00:11:48.41 bitrate=N/A speed=  16x    frame=17193 fps=383 q=-0.0 size=N/A time=00:11:57.09 bitrate=N/A speed=  16x    frame=17396 fps=383 q=-0.0 size=N/A time=00:12:05.55 bitrate=N/A speed=  16x    frame=17592 fps=383 q=-0.0 size=N/A time=00:12:13.73 bitrate=N/A speed=  16x    frame=17793 fps=383 q=-0.0 size=N/A time=00:12:22.11 bitrate=N/A speed=  16x    frame=17999 fps=384 q=-0.0 size=N/A time=00:12:30.70 bitrate=N/A speed=  16x    frame=18188 fps=383 q=-0.0 size=N/A time=00:12:38.59 bitrate=N/A speed=  16x    frame=18381 fps=383 q=-0.0 size=N/A time=00:12:46.64 bitrate=N/A speed=  16x    frame=18591 fps=383 q=-0.0 size=N/A time=00:12:55.39 bitrate=N/A speed=  16x    frame=18794 fps=384 q=-0.0 size=N/A time=00:13:03.86 bitrate=N/A speed=  16x    frame=19005 fps=384 q=-0.0 size=N/A time=00:13:12.66 bitrate=N/A speed=  16x    frame=19212 fps=384 q=-0.0 size=N/A time=00:13:21.30 bitrate=N/A speed=  16x    frame=19425 fps=384 q=-0.0 size=N/A time=00:13:30.18 bitrate=N/A speed=  16x    frame=19633 fps=385 q=-0.0 size=N/A time=00:13:38.85 bitrate=N/A speed=  16x    frame=19844 fps=385 q=-0.0 size=N/A time=00:13:47.66 bitrate=N/A speed=  16x    frame=20058 fps=385 q=-0.0 size=N/A time=00:13:56.58 bitrate=N/A speed=16.1x    frame=20267 fps=385 q=-0.0 size=N/A time=00:14:05.30 bitrate=N/A speed=16.1x    frame=20468 fps=385 q=-0.0 size=N/A time=00:14:13.68 bitrate=N/A speed=16.1x    frame=20652 fps=385 q=-0.0 size=N/A time=00:14:21.36 bitrate=N/A speed=16.1x    frame=20858 fps=385 q=-0.0 size=N/A time=00:14:29.95 bitrate=N/A speed=16.1x    frame=21067 fps=385 q=-0.0 size=N/A time=00:14:38.66 bitrate=N/A speed=16.1x    frame=21274 fps=385 q=-0.0 size=N/A time=00:14:47.30 bitrate=N/A speed=16.1x    frame=21485 fps=386 q=-0.0 size=N/A time=00:14:56.10 bitrate=N/A speed=16.1x    frame=21694 fps=386 q=-0.0 size=N/A time=00:15:04.82 bitrate=N/A speed=16.1x    frame=21900 fps=386 q=-0.0 size=N/A time=00:15:13.41 bitrate=N/A speed=16.1x    frame=22106 fps=386 q=-0.0 size=N/A time=00:15:22.00 bitrate=N/A speed=16.1x    frame=22319 fps=386 q=-0.0 size=N/A time=00:15:30.88 bitrate=N/A speed=16.1x    frame=22526 fps=387 q=-0.0 size=N/A time=00:15:39.52 bitrate=N/A speed=16.1x    frame=22733 fps=387 q=-0.0 size=N/A time=00:15:48.15 bitrate=N/A speed=16.1x    frame=22932 fps=387 q=-0.0 size=N/A time=00:15:56.45 bitrate=N/A speed=16.1x    frame=23148 fps=387 q=-0.0 size=N/A time=00:16:05.46 bitrate=N/A speed=16.1x    frame=23350 fps=387 q=-0.0 size=N/A time=00:16:13.88 bitrate=N/A speed=16.1x    frame=23560 fps=387 q=-0.0 size=N/A time=00:16:22.64 bitrate=N/A speed=16.1x    frame=23771 fps=387 q=-0.0 size=N/A time=00:16:31.44 bitrate=N/A speed=16.2x    frame=23983 fps=387 q=-0.0 size=N/A time=00:16:40.29 bitrate=N/A speed=16.2x    frame=24186 fps=387 q=-0.0 size=N/A time=00:16:48.75 bitrate=N/A speed=16.2x    frame=24393 fps=388 q=-0.0 size=N/A time=00:16:57.39 bitrate=N/A speed=16.2x    frame=24601 fps=388 q=-0.0 size=N/A time=00:17:06.06 bitrate=N/A speed=16.2x    frame=24813 fps=388 q=-0.0 size=N/A time=00:17:14.90 bitrate=N/A speed=16.2x    frame=25020 fps=388 q=-0.0 size=N/A time=00:17:23.54 bitrate=N/A speed=16.2x    frame=25224 fps=388 q=-0.0 size=N/A time=00:17:32.05 bitrate=N/A speed=16.2x    frame=25430 fps=388 q=-0.0 size=N/A time=00:17:40.64 bitrate=N/A speed=16.2x    frame=25638 fps=388 q=-0.0 size=N/A time=00:17:49.31 bitrate=N/A speed=16.2x    frame=25851 fps=388 q=-0.0 size=N/A time=00:17:58.20 bitrate=N/A speed=16.2x    frame=26058 fps=389 q=-0.0 size=N/A time=00:18:06.83 bitrate=N/A speed=16.2x    frame=26262 fps=389 q=-0.0 size=N/A time=00:18:15.34 bitrate=N/A speed=16.2x    frame=26472 fps=389 q=-0.0 size=N/A time=00:18:24.10 bitrate=N/A speed=16.2x    frame=26674 fps=389 q=-0.0 size=N/A time=00:18:32.52 bitrate=N/A speed=16.2x    frame=26884 fps=389 q=-0.0 size=N/A time=00:18:41.28 bitrate=N/A speed=16.2x    frame=27071 fps=389 q=-0.0 size=N/A time=00:18:49.08 bitrate=N/A speed=16.2x    frame=27259 fps=389 q=-0.0 size=N/A time=00:18:56.92 bitrate=N/A speed=16.2x    frame=27468 fps=389 q=-0.0 size=N/A time=00:19:05.64 bitrate=N/A speed=16.2x    frame=27667 fps=389 q=-0.0 size=N/A time=00:19:13.94 bitrate=N/A speed=16.2x    frame=27867 fps=389 q=-0.0 size=N/A time=00:19:22.28 bitrate=N/A speed=16.2x    frame=28063 fps=389 q=-0.0 size=N/A time=00:19:30.46 bitrate=N/A speed=16.2x    frame=28265 fps=389 q=-0.0 size=N/A time=00:19:38.88 bitrate=N/A speed=16.2x    frame=28475 fps=389 q=-0.0 size=N/A time=00:19:47.64 bitrate=N/A speed=16.2x    frame=28682 fps=389 q=-0.0 size=N/A time=00:19:56.27 bitrate=N/A speed=16.2x    frame=28853 fps=388 q=-0.0 size=N/A time=00:20:03.41 bitrate=N/A speed=16.2x    frame=29027 fps=388 q=-0.0 size=N/A time=00:20:10.66 bitrate=N/A speed=16.2x    frame=29213 fps=388 q=-0.0 size=N/A time=00:20:18.42 bitrate=N/A speed=16.2x    frame=29408 fps=388 q=-0.0 size=N/A time=00:20:26.55 bitrate=N/A speed=16.2x    frame=29591 fps=388 q=-0.0 size=N/A time=00:20:34.19 bitrate=N/A speed=16.2x    frame=29773 fps=387 q=-0.0 size=N/A time=00:20:41.78 bitrate=N/A speed=16.2x    frame=29951 fps=387 q=-0.0 size=N/A time=00:20:49.20 bitrate=N/A speed=16.1x    frame=30122 fps=387 q=-0.0 size=N/A time=00:20:56.33 bitrate=N/A speed=16.1x    frame=30335 fps=387 q=-0.0 size=N/A time=00:21:05.22 bitrate=N/A speed=16.1x    frame=30535 fps=387 q=-0.0 size=N/A time=00:21:13.56 bitrate=N/A speed=16.1x    frame=30741 fps=387 q=-0.0 size=N/A time=00:21:22.15 bitrate=N/A speed=16.1x    frame=30946 fps=387 q=-0.0 size=N/A time=00:21:30.70 bitrate=N/A speed=16.1x    frame=31153 fps=387 q=-0.0 size=N/A time=00:21:39.33 bitrate=N/A speed=16.1x    frame=31350 fps=387 q=-0.0 size=N/A time=00:21:47.55 bitrate=N/A speed=16.1x    frame=31551 fps=387 q=-0.0 size=N/A time=00:21:55.93 bitrate=N/A speed=16.1x    frame=31746 fps=387 q=-0.0 size=N/A time=00:22:04.07 bitrate=N/A speed=16.1x    frame=31941 fps=387 q=-0.0 size=N/A time=00:22:12.20 bitrate=N/A speed=16.1x    frame=32132 fps=387 q=-0.0 size=N/A time=00:22:20.17 bitrate=N/A speed=16.1x    frame=32337 fps=387 q=-0.0 size=N/A time=00:22:28.72 bitrate=N/A speed=16.1x    frame=32539 fps=387 q=-0.0 size=N/A time=00:22:37.14 bitrate=N/A speed=16.1x    frame=32708 fps=387 q=-0.0 size=N/A time=00:22:44.19 bitrate=N/A speed=16.1x    frame=32876 fps=386 q=-0.0 size=N/A time=00:22:51.20 bitrate=N/A speed=16.1x    frame=33071 fps=386 q=-0.0 size=N/A time=00:22:59.33 bitrate=N/A speed=16.1x    frame=33262 fps=386 q=-0.0 size=N/A time=00:23:07.30 bitrate=N/A speed=16.1x    frame=33447 fps=386 q=-0.0 size=N/A time=00:23:15.01 bitrate=N/A speed=16.1x    frame=33602 fps=385 q=-0.0 size=N/A time=00:23:21.48 bitrate=N/A speed=16.1x    frame=33748 fps=385 q=-0.0 size=N/A time=00:23:27.57 bitrate=N/A speed=16.1x    frame=33880 fps=384 q=-0.0 size=N/A time=00:23:33.07 bitrate=N/A speed=  16x    frame=34048 fps=384 q=-0.0 size=N/A time=00:23:40.08 bitrate=N/A speed=  16x    frame=34214 fps=383 q=-0.0 size=N/A time=00:23:47.00 bitrate=N/A speed=  16x    frame=34360 fps=383 q=-0.0 size=N/A time=00:23:53.09 bitrate=N/A speed=  16x    frame=34506 fps=382 q=-0.0 size=N/A time=00:23:59.18 bitrate=N/A speed=15.9x    [Parsed_psnr_16 @ 00000205a5243080] PSNR y:49.049565 u:50.424015 v:50.478441 average:49.468431 min:38.016309 max:inf
[out#0/null @ 0000020597cd3a00] video:14903KiB audio:271276KiB subtitle:0KiB other streams:0KiB global headers:0KiB muxing overhead: unknown
frame=34683 fps=382 q=-0.0 Lsize=N/A time=00:24:06.57 bitrate=N/A speed=15.9x    
